<svg width="580" height="122" viewBox="0 0 580 122" fill="none" xmlns="http://www.w3.org/2000/svg">
<path d="M10.2325 1.12805C12.7017 2.96317 16.4205 5.6902 19.3016 7.72947C20.2265 8.38216 19.5162 8.45778 20.1372 8.91468C21.3735 9.81539 22.7238 10.3215 23.9439 11.1933C24.3551 11.4875 23.4874 11.7878 23.9292 12.0841C26.3487 13.6967 28.8953 14.7628 31.5185 16.145C41.5634 21.4202 52.0927 25.6354 63.0024 29.3887C66.0873 30.4485 69.2335 31.4273 72.4287 32.3553C77.1432 33.7304 82.8768 35.7134 87.9304 36.5226C88.5202 36.6169 88.2961 35.9657 88.4172 35.942C90.3127 35.5853 89.4985 36.6286 90.5974 37.0203C94.9948 38.5764 100.059 39.5991 104.494 40.1587C106.385 40.3947 104.716 38.91 106.48 39.8884C106.602 39.955 106.021 40.4887 106.521 40.6442C107.657 40.9966 109.89 41.2648 110.784 41.4641C112.515 41.8538 112.798 41.8938 114.448 42.1694C116.703 42.5508 119.338 43.2789 121.787 43.5059C122.31 43.5525 121.72 42.8144 122.563 42.831C123.4 42.8477 125.581 43.2253 126.296 43.4814C127.01 43.7382 126.625 44.1918 126.739 44.3252C127.673 45.448 130.401 44.4688 130.729 44.4801C136.748 44.7456 141.751 46.1683 147.349 46.8467C151.598 47.3594 156.172 47.6268 160.217 48.1006C161.58 48.2611 162.884 48.4372 164.154 48.6156C167.377 49.0677 170.403 49.5283 173.768 49.7809C174.262 49.8185 173.75 49.0163 174.352 49.0604C180.767 49.5286 187.119 50.0492 193.49 50.8831C194.129 50.9672 193.268 51.5872 193.905 51.7107C197.801 52.46 204.011 53.9865 206.423 51.1581C209.085 51.3437 212.307 51.5208 214.685 52.1305C216.221 52.5225 214.72 53.2285 216.611 52.9393C217.037 52.8744 216.489 52.2376 217.128 52.1879C219.826 51.979 222.757 52.1878 225.419 51.8467C225.961 51.7758 225.81 51.2102 225.963 51.1073C227.239 50.2744 229.395 51.6174 229.869 51.7102C233.43 52.4055 236.049 52.0622 239.358 51.9967C240.129 51.9813 239.197 51.2445 239.939 51.202C243.772 50.992 247.766 50.9202 251.536 51.1036C252.38 51.1459 251.633 51.8253 252.038 51.8786C253.814 52.1049 254.146 50.8651 255.858 51.0523C256.22 51.09 256.043 51.6535 256.111 51.7113C257.171 52.6202 257.99 51.2239 258.251 51.1814C261.553 50.6116 263.744 51.9122 266.931 51.5321C267.314 51.4849 266.407 50.8334 267.486 50.7434C271.879 50.373 276.438 50.1118 280.967 49.9715C283.793 49.885 286.623 49.8451 289.387 49.8581C290.501 49.8622 289.75 50.4466 289.825 50.5062C291.027 51.4356 291.659 50.023 292.015 49.9447C294.84 49.3615 297.568 50.2924 299.374 48.5224C311.446 48.125 323.329 46.1586 335.383 46.4966C335.536 46.4993 335.327 47.1919 335.632 47.1944C339.311 47.2292 338.513 46.257 340.802 44.7619C341.38 44.3862 343.371 45.7426 343.545 45.8393C344.179 46.1964 343.656 47.2478 343.863 47.309C345.57 47.7813 344.99 44.524 347.215 44.3101C347.285 44.309 347.051 44.9412 347.244 44.9834C347.842 45.1164 348.393 44.8212 348.98 44.9748C350.32 45.3317 350.946 46.8814 352.838 45.7614C353.077 45.6166 352.515 43.792 354.505 43.6877C355.308 43.6469 358.797 43.2747 359.797 43.2983C360.792 43.3226 360.176 43.9886 360.249 44.0077C362.972 44.5418 362 44.9689 363.437 46.0136C364.876 47.0533 364.237 44.2986 364.746 43.9339C365.259 43.5699 367.259 44.0334 367.755 44.2141C368.251 44.3949 367.698 44.8345 368.132 44.9217C371.033 45.4846 369.231 43.4143 370.114 42.8797C372.181 41.616 374.099 43.5152 376.107 43.5203C376.649 43.5216 376.164 43.0939 376.638 43.0023C378.535 42.6435 379.737 43.1758 381.846 42.3677C382.194 42.2356 383.826 40.8164 385.041 41.6173C385.215 41.733 384.809 42.2941 385.632 42.3288C386.879 42.3795 389.052 42.2766 390.349 41.9735C391.303 41.7496 390.111 41.0102 391.353 41.1531C391.903 41.2174 390.955 41.8138 391.984 41.8931C392.996 41.974 395.585 41.6946 396.554 41.5812C397.524 41.4674 396.928 40.8755 397.002 40.8243C397.439 40.5298 399.312 40.0306 399.472 40.0156C406.335 39.2722 412.894 39.3639 419.475 38.8085C420.919 38.6866 422.338 38.5401 423.752 38.3531C424.4 38.2694 423.908 37.6265 424.006 37.6067C426.197 37.1318 424.61 39.0896 426.193 39.5662C425.862 38.2033 426.766 38.378 428.306 38.102C429.053 37.9678 428.6 37.4656 428.665 37.4053C429.717 36.5041 430.561 37.4962 430.773 37.696C431.55 38.4315 432.289 37.4383 432.83 37.9301C433.367 38.4184 432.277 39.2779 433.76 39.1617C434.14 38.6374 432.948 37.4218 434.058 37.1327C438.264 36.0245 446.267 36.6113 449.698 36.6062C453.136 36.5874 454.24 36.4744 456.227 36.6102C459.845 36.8705 458.498 35.9325 460.746 35.4702C462.975 35.018 461.908 37.3917 462.228 37.8989C462.547 38.4067 462.893 37.8828 463.285 38.1628C463.675 38.4429 462.832 38.7875 463.746 38.8941C464.636 38.998 467.188 38.12 467.508 37.5954C468.221 36.4808 467.107 35.2735 469.549 35.7391C469.688 35.7669 469.221 36.3788 469.754 36.4539C474.016 37.0308 478.467 37.2708 482.681 38.0129C483.266 38.1164 482.687 38.767 483.025 38.8351C486.512 39.5592 485.354 38.2975 487.416 37.1822C486.819 38.8622 487.789 40.0005 490.453 40.2973C492.046 40.4797 491.865 39.7026 492.962 39.2959C493.288 39.1724 494.371 39.8261 494.618 39.5004C495.444 38.4383 494.525 37.0061 497.238 37.8841C497.356 37.9247 496.886 38.5017 497.299 38.5959C499.973 39.2155 500.465 38.0618 503.417 38.3608C504.621 38.4847 506.275 38.9207 507.942 39.3926C509.505 39.8303 511.034 40.3024 512.265 40.5891C511.865 42.4857 514.386 42.5106 515.629 41.4021C517.319 41.7999 519.118 42.1124 520.712 42.6705C521.256 42.8614 520.762 43.3235 520.819 43.399C521.675 44.5759 522.689 43.4842 523.06 43.5223C527.098 44.0071 529.96 45.8313 533.898 46.0558C534.033 46.0626 534.661 44.8447 535.345 46.1002C535.386 46.1851 533.991 46.3759 535.695 46.9808C537.385 47.5793 540.352 49.3816 542.902 49.7008C543.507 49.7707 545.366 49.3233 546.179 50.5821C546.286 50.7515 545.974 51.0414 546.109 51.3297C546.541 52.2491 547.467 51.1593 547.837 52.5753C548.204 53.9919 549.534 55.5071 552.115 55.836C552.196 55.8485 553.195 55.1239 553.899 55.4818C555.016 56.0481 556.526 57.0516 557.686 57.6446C558.247 57.9304 558.198 57.1502 558.301 57.1896C562.24 58.8232 564.595 60.8375 568.329 63.4061C569.012 63.8763 571.532 64.3652 572.496 65.8499C573.546 67.4764 570.25 69.2373 574.016 70.7934C575.52 71.4228 579.605 69.1472 580.773 72.6161C585.734 75.4604 589.305 79.5028 594.323 82.3245C594.548 82.4516 595.901 82.0126 596.375 82.39C597.072 82.9492 597.136 83.6809 597.627 84.0966C598.731 85.0424 599.871 85.7876 601.026 86.5427C601.033 86.5481 601.053 86.5665 601.059 86.5732C601.911 87.4061 602.749 88.2267 603.511 89.1404C604.148 89.9014 603.497 90.0137 604.245 90.9106C605 91.8153 606.07 91.9101 606.846 93.3407C607.427 94.4202 607.074 96.3222 607.983 97.6354C609.15 96.698 609.847 97.5462 611.418 98.7503C611.723 98.9844 611.85 98.3379 612.015 98.4309C612.691 98.7991 612.801 99.5829 613.469 99.9043C613.63 99.9823 614.02 99.6523 614.173 99.6965C615.501 100.076 615.884 102.254 615.952 102.632C616.209 104.072 617.097 104.072 617.508 104.98C617.929 105.898 616.69 105.076 617.305 106.033C618.579 108.014 620.676 110.161 622.36 111.842C623.031 112.506 623.045 111.567 623.152 111.651C624.549 112.792 625.548 114.473 627.041 114.372C627.153 114.362 627.27 114.344 627.39 114.314C626.331 117.899 628.487 114.841 630.364 116.827C630.51 116.976 629.961 118.584 629.058 118.332C628.145 118.072 627.326 116.86 626.165 116.436C626.077 116.403 625.793 116.406 625.44 116.423C625.438 116.422 625.431 116.416 625.429 116.414C624.651 116.434 623.52 116.455 623.355 116.396C621.483 115.744 623.006 113.735 623.03 113.579C623.28 111.811 620.732 111.631 620.284 111.33C618.244 109.993 617.152 108.272 615.558 107.064C614.52 106.271 613.221 107.254 612.587 106.463C610.493 103.839 611.442 101.468 607.902 100.396C607.14 100.159 606.245 101.836 605.718 99.1025C605.686 98.9317 605.475 96.7438 604.189 96.5012C604.028 96.4713 603.641 96.8151 603.496 96.7154C602.526 96.0336 602.336 95.1904 601.371 94.3924C600.395 93.5803 599.198 92.6694 598.382 91.4851C598.031 90.9746 597.931 90.0701 597.859 89.4266L598.441 89.9629C598.367 89.7283 598.306 89.5315 598.255 89.4108C597.732 88.163 596.075 88.3075 595.995 87.2142C595.914 86.1151 597.806 85.9693 596.609 84.3935C595.742 85.4239 594.78 86.4276 593.874 87.4385C590.582 84.8907 587.582 82.0876 584.202 79.6847C583.783 79.3885 583.779 80.2816 583.319 79.9801C581.379 78.705 580.038 77.1042 577.962 75.8947C576.35 74.959 574.25 74.4415 572.549 73.5335C572.432 71.5978 569.75 70.4568 568.074 69.2393C567.487 68.8121 567.746 68.4898 567.377 68.1024C565.977 66.6531 566.042 68.2939 565.477 68.1981C563.063 67.804 564.474 65.0552 562.074 63.7631C561.943 63.6891 559.619 64.2646 559.362 64.2422C557.709 64.093 559.418 63.6197 558.637 63.0546C557.216 62.0331 556.309 61.111 554.269 60.6213C553.667 60.4768 551.948 60.7677 551.249 59.5603C551.156 59.4014 551.465 58.9476 551.367 58.8662C549.571 57.4359 548.811 58.9724 547.427 58.983C546.052 58.9985 544.738 57.1652 544.489 56.697C543.867 55.4892 545.373 56.6581 545.459 56.6037C546.475 55.9222 545.072 55.5156 544.099 55.0272C544.587 53.4192 543.104 52.9337 543.075 54.5246C543.074 54.6986 543.925 54.873 544.099 55.0272C542.587 56.1805 540.988 55.7671 539.784 53.6839C539.214 52.7103 540.275 52.1935 537.669 51.5886C536.48 51.3186 536.54 52.5577 535.437 52.5119C532.945 52.4173 530.255 50.4562 527.807 49.9423C526.919 49.7556 527.597 50.6008 526.985 50.4952C525.345 50.2152 524.101 49.398 522.423 49.2278C522.272 49.2135 522.469 49.9417 521.966 49.8256C518.21 48.9785 514.993 47.8533 510.99 47.0976C509.908 46.8941 508.332 46.7307 506.766 46.563C505.555 46.4327 504.379 46.2966 503.497 46.1261C499.999 45.4479 495.807 43.8936 492.763 43.7695C490.792 43.687 491.133 44.3939 490.254 44.7474C488.551 45.4311 485.846 43.6093 485.479 43.3377C485.47 43.3276 487.162 43.3276 486.298 42.9078C485.84 42.1574 485.498 43.3364 485.479 43.3377C485.241 43.1538 481.858 42.7304 481.191 42.8171C480.822 42.8604 480.982 43.4979 480.791 43.5089C476.224 43.7568 471.742 43.7399 467.138 43.3816C467.058 43.3678 467.188 42.6707 467 42.6472C464.344 42.302 462.603 43.1584 460.434 43.6817C458.224 44.2073 456.493 44.0725 455.169 42.9034C453.505 43.0922 451.121 42.6377 449.704 42.3707C448.333 42.1014 448.189 43.4708 448.071 43.5023C444.334 44.5255 442.125 43.8639 438.196 43.9871C436.322 44.0428 432.619 44.5013 430.641 44.8059C429.058 45.0486 428.053 44.8101 426.617 45.1342C426.421 45.1779 426.672 45.7647 426.614 45.793C425.035 46.6533 425.696 45.1118 425.334 44.8771C423.994 44.0271 423.234 43.578 421.153 44.2216C420.928 44.2911 420.535 44.8272 420.088 45.3976C419.604 46.0376 419.049 46.7209 418.586 46.8307C417.446 47.0967 417.802 46.2956 416.608 46.5944C416.507 46.6192 416.575 47.0862 415.834 47.1357C412.339 47.3771 408.572 47.4671 404.963 47.8686C404.474 47.9213 405.176 48.6039 404.469 48.6924C401.122 49.1101 397.498 49.4415 394.19 49.4187C393.387 49.4096 393.833 48.8391 393.645 48.7015C392.494 47.8707 391.109 49.3821 390.859 49.4332C384.968 50.6802 380.295 49.9043 374.28 51.0936C373.944 51.1617 371.559 52.8708 370.294 51.7331C370.211 51.6573 368.947 50.4905 368.05 51.4624C367.994 51.5232 368.757 52.113 367.532 52.1661C366.309 52.2192 364.372 52.8542 362.631 52.2943C362.079 52.1183 360.691 50.9658 359.206 52.1381C359.111 52.2191 356.889 54.7584 355.856 53.2562C355.689 53.0085 355.67 51.315 353.865 52.3592C353.52 52.5611 354.213 52.8723 353.283 53.1985C351.857 53.7004 349.876 53.4371 348.154 54.3572C347.854 54.5196 346.625 55.788 345.475 55.024C345.294 54.9044 345.559 54.3132 344.989 54.3041C342.275 54.2583 339.497 54.8986 336.73 54.7647C335.752 54.7182 336.161 53.7654 335.132 53.6158C334.103 53.4663 332.051 53.4198 331.035 53.9307C330.018 54.442 331.303 55.7824 329.733 56.0424C322.906 57.1716 316.017 56.9243 309.139 57.376C308.121 57.4425 309.007 57.89 307.503 58.0251C301.969 58.5292 292.428 59.763 287.529 59.0043C283.623 58.3982 288.412 57.3805 285.445 57.2317C284.004 57.1623 282.587 58.9518 282.249 59.0282C282.026 59.0799 281.808 59.1255 281.594 59.1655C278.59 59.7218 276.336 59.2312 273.535 59.6197C272.918 59.7055 273.569 60.3507 273.042 60.4162C271.211 60.6478 269.317 60.4539 267.563 60.6095C266.783 60.6802 266.957 61.1938 266.238 61.1935C264.532 61.1976 262.975 61.0605 261.288 60.656C261.134 60.6191 262.124 59.918 260.86 59.958C258.791 60.0253 256.23 59.663 253.882 60.2633C253.186 60.4431 253.219 61.6378 251.664 60.876C251.34 60.7165 251.685 59.2688 249.977 60.5754C249.699 60.7932 246.783 62.5737 245.303 61.5432C244.916 61.2723 243.89 60.1315 243.052 60.3411C242.938 60.374 243.417 61.0014 242.718 61.0849C240.261 61.3675 237.666 61.3639 235.122 61.6144C234.445 61.6823 235.468 62.3267 234.458 62.4065C231.674 62.6271 228.189 62.5002 225.464 62.3056C224.456 62.2327 225.15 61.6795 225.076 61.62C223.896 60.6522 223.209 61.9665 222.819 62.0436C220.385 62.5044 218.541 61.8789 216.302 62.0217C215.685 62.0592 216.116 62.6897 215.992 62.7444C214.712 63.2766 215.674 62.1621 214.867 62.0289C212.607 61.6514 210.087 61.6571 207.799 61.6818C206.957 61.6916 207.885 62.4409 207.129 62.441C202.657 62.4545 198.008 62.2113 193.671 61.595C192.854 61.4775 193.398 60.9447 193.234 60.8086C192.103 59.8576 190.317 60.9802 189.911 61.0731C188.075 61.4995 187.402 60.9628 185.803 60.9538C178.662 60.9253 170.056 59.9524 163.064 59.0116C162.403 58.9232 161.756 58.8361 161.125 58.7511C151.669 57.4741 144.388 56.0703 135.351 55.0149C134.777 54.9467 135.257 55.7611 134.761 55.7116C128.347 55.0357 122.113 53.8432 115.687 53.0474C115.16 52.9807 115.806 53.7969 114.957 53.7129C113.216 53.5458 111.032 53.1516 109.319 52.6364C108.485 52.3866 109.728 51.9813 108.887 51.742C106.937 51.1842 104.808 50.7651 102.74 50.5105C101.859 50.4033 103.047 51.349 101.913 51.154C94.1844 49.8346 86.574 48.4439 79.0079 45.7188C78.4991 45.5336 78.3532 43.9942 77.1649 43.9979C76.9849 44.373 76.8773 44.8394 76.7383 45.2532C70.9296 43.9757 65.1668 42.3507 59.4722 40.4095C54.2476 38.6241 49.0579 36.6865 43.8579 34.6858C43.4047 34.5113 43.9152 35.5348 43.0367 35.2001C37.9547 33.2586 32.8701 31.4065 28.0847 28.3844C27.6021 28.0805 28.4207 26.9568 26.8535 26.458C26.5949 26.3833 24.2458 25.4718 23.565 25.4655C23.4642 25.466 23.6038 26.244 22.8609 25.9022C18.6146 23.9331 14.3328 21.4834 10.4803 18.6634C9.85795 18.205 10.9105 18.0559 10.4747 17.7262C7.41369 15.4043 3.57978 13.4127 0.993691 10.2996C-0.705664 8.17394 0.823968 7.97648 0.694263 6.1797C0.682757 5.95469 -0.367721 4.64257 0.137175 4.15342C1.40865 3.02965 3.26857 2.4281 4.55529 1.13946C4.69169 0.999534 4.50364 0.756579 4.46974 0.58075C4.44313 0.417025 4.53928 0.323228 5.03713 0.242785C5.07166 0.23865 5.2272 0.313794 5.46782 0.425234C5.70944 0.539487 6.01067 0.651517 6.21593 0.644433C6.48484 0.61712 6.81863 -0.0375669 7.23026 0.00169921C7.64761 0.0436621 7.49181 0.715085 8.18766 0.920653C8.88285 1.10668 9.17409 0.341416 10.2325 1.12805ZM443.43 41.2149C442.107 40.6308 442.056 43.03 443.405 42.3847C443.471 42.3507 443.498 41.2434 443.43 41.2149ZM588.673 80.67C587.951 78.8173 586.109 79.3883 586.573 80.7442C587.035 82.0993 588.893 81.233 588.673 80.67ZM602.293 90.9344C601.612 88.9075 598.871 90.9303 600.775 92.0475C600.885 92.1141 602.334 91.0529 602.293 90.9344ZM5.48923 10.0264C5.49149 9.99111 4.67153 9.30438 4.62527 9.30406C3.68993 9.53277 5.37207 10.9428 5.48923 10.0264ZM614.343 103.447C614.279 102.68 612.714 101.696 612.786 102.645C612.852 103.419 614.422 104.401 614.343 103.447ZM376.276 44.6772C376.252 44.6437 375.507 44.6855 375.542 44.8846C375.657 45.5256 376.671 45.2406 376.276 44.6772ZM637.899 121.108C633.572 119.772 632.347 116.162 636.481 117.976C637.26 118.288 634.495 118.266 635.428 118.84C637.182 119.899 638.906 118.532 640.633 119.913C640.955 120.172 638.148 121.201 637.89 121.11C637.893 121.109 637.896 121.109 637.899 121.108ZM442.535 38.3843C442.509 38.3538 441.483 38.3802 441.459 38.4133C440.947 39.2023 443.012 39.1493 442.535 38.3843ZM332.686 47.4036C332.622 47.3419 330.224 47.499 330.152 47.5678C329.016 48.9196 333.867 48.6056 332.686 47.4036ZM512.297 40.6476C513.57 40.1056 514.936 40.2809 515.624 41.4001C514.537 41.128 513.42 40.9036 512.297 40.6476Z" fill="#45321F"/>
</svg>
