<svg width="1041" height="79" viewBox="0 0 1041 79" fill="none" xmlns="http://www.w3.org/2000/svg">
<path d="M6.45621 20.733C11.5818 16.9232 18.8879 13.0392 24.6506 10.6309C26.4622 9.86958 25.7406 10.683 26.997 10.1888C29.4472 9.23608 31.6259 8.06866 34.1068 7.28466C34.9343 7.02677 34.1847 8.04812 35.045 7.76577C39.7224 6.24079 44.0929 4.58122 48.9618 3.39318C53.7356 2.23373 58.5599 1.34061 63.4422 0.773259C83.236 -1.37457 101.999 1.36657 120.989 3.94021C128.852 5.07129 138.208 7.07871 146.272 8.08758C147.204 8.20294 146.744 7.5332 146.928 7.51313C149.834 7.22211 148.723 8.25077 150.547 8.70406C155.798 10.0175 161.541 11.1267 167.056 12.0232C168.953 12.3312 170.851 12.6182 172.707 12.8814C175.667 13.2984 172.917 11.628 175.764 12.7949C175.962 12.8749 175.106 13.3599 175.903 13.568C177.726 14.0406 181.229 14.5502 182.638 14.8539C185.378 15.4459 185.84 15.5231 188.414 15.997C191.985 16.6602 196.105 17.7327 199.956 18.3016C200.767 18.4192 199.817 17.5904 201.123 17.7213C202.419 17.8505 205.881 18.5504 206.988 18.9117C208.107 19.2749 207.526 19.6796 207.708 19.8312C209.188 21.1006 213.446 20.5255 213.941 20.585C223.348 21.7779 231.145 24.0502 239.858 25.7182C246.479 26.9844 253.586 28.094 259.878 29.3423C267.368 30.8309 273.646 32.3967 280.94 33.7404C281.71 33.8831 280.951 32.9685 281.893 33.1412C291.876 34.974 301.758 36.9552 311.591 39.3447C312.576 39.5847 311.171 39.9918 312.147 40.2705C318.143 41.9667 327.529 45.0679 331.688 42.9101C335.787 43.7929 340.795 44.8429 344.362 46.0927C346.684 46.9017 344.234 47.1841 347.223 47.4215C347.896 47.4755 347.152 46.6959 348.152 46.8237C352.34 47.3585 356.878 48.3944 361.052 48.8148C361.906 48.8998 361.776 48.3008 362.033 48.2434C364.19 47.7929 367.231 49.7234 367.96 49.9536C373.364 51.6665 377.449 52.0871 382.58 52.9903C383.781 53.2017 382.49 52.2075 383.649 52.3836C389.59 53.2941 395.813 54.4038 401.562 55.6765C401.775 55.7239 401.916 55.7759 402.006 55.8304C402.47 56.1043 401.643 56.4359 402.159 56.5782C404.883 57.3211 405.681 56.2085 408.234 56.8789C408.773 57.0184 408.381 57.5183 408.471 57.5943C409.931 58.7916 411.513 57.665 411.923 57.698C417.1 58.0817 420.206 59.9762 425.216 60.4967C425.809 60.5562 424.582 59.6709 426.24 59.8799C437.46 61.2909 449.202 62.9946 460.239 64.7513C461.95 65.0224 460.666 65.4145 460.767 65.4909C462.407 66.6886 463.715 65.4553 464.283 65.4625C468.716 65.5497 472.828 67.078 475.943 65.7216C493.867 67.8336 511.725 67.8283 529.567 68.7237C530.434 68.7692 531.297 68.8144 532.155 68.8599C532.392 68.8708 531.984 69.5517 532.458 69.5702C538.174 69.7633 537.036 68.745 540.714 67.2595C541.638 66.8858 544.592 68.205 544.875 68.2906C545.842 68.6271 544.957 69.7015 545.277 69.7556C547.932 70.1571 547.182 66.9253 550.635 66.5588C550.744 66.5525 550.357 67.2053 550.653 67.2337C551.577 67.3232 552.418 66.983 553.335 67.0817C555.423 67.3078 556.325 68.8155 559.305 67.4345C559.675 67.2528 558.809 65.5078 561.866 65.107C563.101 64.9609 568.451 63.9545 569.966 63.7514C571.494 63.5621 570.583 64.3639 570.696 64.3677C574.899 64.2976 573.435 64.9394 575.736 65.6359C578.039 66.3125 576.828 63.711 577.577 63.2126C578.347 62.7134 581.411 62.6246 582.214 62.646C582.998 62.6774 582.189 63.2852 582.868 63.2409C587.344 62.9176 584.37 61.396 585.65 60.5845C588.625 58.6588 591.755 59.8858 594.815 59.1248C595.634 58.9199 594.832 58.68 595.535 58.4069C598.335 57.3181 600.235 57.3609 603.248 55.6612C603.74 55.3856 605.899 53.2765 607.865 53.5168C608.148 53.5516 607.65 54.2928 608.896 53.9484C610.75 53.4397 613.969 52.312 615.829 51.3834C617.183 50.7062 615.26 50.5543 617.121 50.0961C617.956 49.8884 616.677 50.9407 618.229 50.5118C619.751 50.0972 623.514 48.5366 624.923 47.9383C626.338 47.339 625.316 47.0579 625.413 46.9709C626.024 46.4496 628.634 45.0431 628.88 44.9443C632.389 43.4897 635.876 42.1678 639.383 41.0004C647.866 38.1233 656.204 35.1307 664.58 31.5287C665.505 31.1296 664.629 30.7441 664.767 30.6767C667.866 29.1336 666.007 31.8285 668.476 31.5012C667.639 30.3427 669.059 30.0469 671.255 29.0187C672.322 28.5185 671.53 28.2536 671.61 28.1632C672.918 26.7729 674.444 27.3079 674.805 27.3985C676.162 27.7194 676.99 26.3938 677.911 26.6058C678.831 26.8139 677.432 28.1893 679.603 27.3407C680.03 26.6443 677.958 26.0528 679.526 25.2238C684.95 22.3451 695.47 19.276 701.148 17.5102C701.699 17.3371 702.203 17.1792 702.655 17.0352C707.824 15.4228 709.508 14.9362 712.61 14.3429C718.218 13.3909 715.989 12.9208 719.397 11.8126C722.837 10.7628 721.515 13.4033 722.099 13.8172C722.664 14.2398 723.119 13.6368 723.77 13.8201C724.411 14.0054 723.166 14.5435 724.591 14.4349C726.016 14.316 729.812 12.9277 730.253 12.3507C731.201 11.113 729.305 10.117 733.177 10.1313C733.4 10.1338 732.746 10.8245 733.596 10.8031C740.316 10.6208 747.258 10.2447 753.95 10.3694C754.868 10.3881 754.079 11.116 754.615 11.1348C760.188 11.3455 758.148 10.2645 761.162 8.85515C760.539 10.6056 762.256 11.5941 766.467 11.4751C769.034 11.405 768.531 10.6665 770.17 10.0889C770.368 10.019 770.782 10.053 771.23 10.095C771.874 10.1578 772.596 10.2415 772.787 10.0259C773.847 8.8504 772.114 7.56613 776.511 8.03333C776.701 8.05637 776.1 8.69542 776.758 8.72871C781.038 8.96132 781.556 7.7531 786.195 7.66798C789.84 7.60221 796.253 8.52055 800.372 8.80175C800.218 10.7361 804.112 10.4438 805.748 9.17858C808.418 9.34957 811.307 9.4122 813.879 9.72911C814.763 9.83765 814.151 10.3688 814.26 10.4351C815.925 11.4745 817.155 10.2376 817.734 10.2178C824.008 10.0627 829.026 11.3571 835.045 10.7774C835.26 10.7565 835.68 9.43247 837.217 10.519C837.315 10.5934 835.31 11.0768 838.105 11.3073C840.909 11.5381 846.119 12.6145 850.061 12.2613C851.015 12.1763 853.455 11.2485 855.317 12.2346C855.563 12.368 855.258 12.7344 855.609 12.9743C856.683 13.7125 857.46 12.5142 858.663 13.5577C858.707 13.5944 858.752 13.6339 858.797 13.6763C860.142 14.9298 862.933 15.9918 866.919 15.5033C867.05 15.4904 868.057 14.486 869.285 14.6032C871.246 14.7903 874.028 15.2552 876.068 15.4352C877.056 15.5219 876.485 14.7963 876.657 14.7998C883.291 15.0381 887.935 16.1362 894.949 17.2244C896.236 17.4246 900.058 16.9649 902.47 17.9809C905.126 19.089 901.905 22.0397 908.342 21.9812C910.303 21.9604 912.863 19.7963 915.871 19.8175C916.879 19.8263 917.928 20.0741 919.005 20.7148C927.911 21.0351 936.07 23.009 945.016 23.3028C945.428 23.3176 946.842 22.3134 947.766 22.4424C949.129 22.6351 949.883 23.2779 950.859 23.4366C955.019 24.1254 958.883 24.169 962.888 24.8053C964.432 25.0502 963.823 25.532 965.612 25.8212C967.452 26.1193 968.747 25.5593 971.159 26.2876C972.979 26.8408 974.613 28.6285 977.021 29.193C977.361 27.7335 979.046 28.0317 982.104 28.1371C982.703 28.1587 982.159 27.5411 982.447 27.5248C983.619 27.4469 984.555 28.0406 985.67 27.9316C985.937 27.9054 986.034 27.4037 986.256 27.3537C988.177 26.9139 990.902 28.5385 991.385 28.8217C993.188 29.8934 994.197 29.3871 995.643 29.9247C997.072 30.4577 994.805 30.4721 996.501 30.9281C1000.04 31.8791 1004.69 32.4663 1008.39 32.8693C1008.55 32.8873 1008.68 32.8933 1008.79 32.89C1009.65 32.8644 1008.95 32.2468 1009.13 32.2533C1012.19 32.4059 1015.14 33.5557 1017.01 32.4445C1018.61 36.2155 1018.88 32.3687 1023.09 33.6761C1023.42 33.7799 1023.63 35.4858 1022.28 35.5428C1020.94 35.5994 1019.03 34.7993 1017.17 34.9201C1016.73 34.9461 1014.07 36.1493 1013.73 36.201C1011.05 36.5878 1010.99 34.0942 1010.86 33.9393C1010.34 33.3247 1009.57 33.1239 1008.77 33.1239C1007.4 33.1245 1005.95 33.6415 1005.43 33.6516C1001.71 33.7284 998.651 32.9029 995.573 32.7929C993.546 32.713 993.099 34.2847 991.549 33.9768C986.416 32.9516 985.013 30.4046 979.858 31.5501C978.738 31.7931 979.51 33.7135 976.009 31.737C975.803 31.6141 973.246 29.9157 971.517 30.4697C971.299 30.5394 971.223 31.0514 970.953 31.0542C969.179 31.0681 968.031 30.479 966.087 30.3941C964.125 30.3068 961.775 30.2702 959.601 29.7946C958.252 29.503 956.738 28.3272 956.105 28.0053C954.397 27.0922 952.318 27.9496 951.311 26.9919C950.3 26.0301 952.653 25.0581 949.77 24.1576C949.494 25.4786 949.07 26.8171 948.726 28.1374C942.239 27.2863 935.973 26.1408 929.458 25.5174C928.658 25.4425 929.401 26.2471 928.539 26.1854C924.842 25.9167 921.7 25.0856 917.949 24.932C917.127 24.8985 916.271 24.9096 915.39 24.9407C913.121 25.0226 910.748 25.2177 908.493 25.1094C906.764 23.3755 902.129 23.3576 898.843 22.8179C897.694 22.6309 897.815 22.2315 897.013 22.0002C893.974 21.1376 895.26 22.6614 894.389 22.7732C890.653 23.2548 890.696 20.156 886.391 19.7617C886.167 19.7389 883.216 21.0774 882.822 21.1413C880.336 21.5584 882.478 20.5315 880.971 20.2583C878.221 19.7634 876.312 19.1894 873.011 19.3823C872.064 19.442 869.686 20.2663 867.903 19.3304C867.669 19.2078 867.846 18.6779 867.654 18.6306C864.144 17.8227 863.913 19.5188 861.855 19.9455C860.731 20.1689 859.423 19.8917 858.252 19.519C857.25 19.1885 856.396 18.7818 856.098 18.6007C854.493 17.6102 857.421 18.3165 857.517 18.2367C858.656 17.2886 856.329 17.3048 854.593 17.0975C854.439 15.4118 851.999 15.3432 852.78 16.8886C852.871 17.0578 854.235 16.9962 854.593 17.0975C852.937 18.6262 850.222 18.648 847.353 16.9155C845.995 16.103 847.389 15.3577 843.125 15.3757C841.199 15.3845 841.846 16.5811 840.144 16.7818C836.225 17.2375 831.259 15.8426 827.256 15.7702C825.806 15.7441 827.177 16.4578 826.185 16.4619C823.544 16.4747 821.262 15.8694 818.609 15.9655C818.369 15.9751 818.916 16.6654 818.096 16.6288C811.882 16.3676 806.492 15.6816 800.015 15.4248C796.885 15.2977 791.28 15.4928 788.052 15.3628C782.675 15.1331 776.041 14.2222 771.349 14.5039C771.171 14.514 770.995 14.5256 770.823 14.5385C767.67 14.7752 768.41 15.4154 767.059 15.9045C764.523 16.8489 759.842 15.4525 759.237 15.2361C759.21 15.2283 761.906 14.9751 760.451 14.6889C759.588 14.0145 759.268 15.2319 759.237 15.2361C758.818 15.0912 753.438 15.1636 752.376 15.3464C751.797 15.443 752.153 16.0515 751.852 16.0902C744.707 17 737.605 17.6184 730.478 18.1544C730.353 18.1564 730.458 17.4403 730.164 17.4539C725.995 17.6427 723.516 18.8879 720.305 19.9923C717.105 21.1041 714.549 21.5395 712.328 20.8756C709.92 21.6426 706.311 22.1968 704.215 22.5901C703.733 22.6773 703.371 22.8211 703.097 22.9898C702.147 23.5672 702.222 24.4024 702.09 24.4714C696.787 27.2888 693.279 27.7503 687.449 29.8177C684.672 30.799 679.309 33.0737 676.389 34.3796C674.091 35.4075 672.553 35.672 670.476 36.715C670.197 36.8551 670.713 37.3021 670.633 37.3588C668.481 38.994 669.101 37.1546 668.505 37.107C666.337 36.936 665.042 36.9016 662.123 38.5627C661.439 38.9491 660.167 41.7603 658.916 42.3993C657.287 43.2268 657.632 42.2639 655.938 43.1462C655.797 43.2192 655.996 43.6479 654.894 44.069C650.897 45.5965 646.599 47.145 642.199 48.7054C641.067 49.1027 639.894 49.5413 638.77 49.9876C638.063 50.2672 639.245 50.6097 638.225 51.028C633.497 52.9737 628.168 55.1785 623.241 56.7982C622.024 57.1966 622.571 56.4097 622.256 56.3694C620.348 56.1291 618.61 58.2937 618.249 58.4635C609.628 62.5701 602.308 63.9374 593.113 67.3562C592.621 67.5486 589.071 70.1171 586.938 69.3873C586.793 69.3408 584.729 68.5716 583.381 69.825C583.3 69.902 584.559 70.2638 582.629 70.6873C580.703 71.1092 577.695 72.2855 574.866 72.1526C573.988 72.1089 571.714 71.2868 569.421 72.768C569.284 72.8746 565.77 75.8725 564.094 74.5241C563.829 74.2984 563.765 72.6146 560.907 73.934C560.354 74.1872 561.464 74.4019 559.969 74.8628C557.664 75.5717 554.489 75.534 551.699 76.5935C551.216 76.7819 549.144 78.1526 547.345 77.4387C547.061 77.3271 547.526 76.7208 546.608 76.7381C542.239 76.8152 537.72 77.4533 533.288 77.1899C531.726 77.0947 532.501 76.1654 530.871 75.9549C530.531 75.9105 530.119 75.867 529.663 75.829C527.996 75.6843 525.671 75.6262 524.365 75.9608C522.694 76.383 524.516 77.8313 522.012 77.9506C511.061 78.4606 500.172 77.2179 489.339 76.3903C487.73 76.2659 489.045 76.8755 486.637 76.7214C477.87 76.1941 462.718 75.2259 455.325 73.249C449.356 71.676 457.086 71.8862 452.471 70.9923C450.309 70.5686 447.67 71.9486 447.118 71.9345C441.853 71.8336 438.226 70.6075 433.539 70.2062C432.556 70.1209 433.423 70.9289 432.585 70.8483C429.715 70.5772 426.808 69.8611 424.101 69.5284C422.896 69.382 423.043 69.9311 421.935 69.7295C419.241 69.2461 416.982 68.6881 414.428 67.8063C414.196 67.7259 415.903 67.3274 413.918 67.0019C410.774 66.487 406.852 65.388 403.146 65.3001C402.193 65.2776 401.887 66.131 400.422 65.6327C400.179 65.549 399.905 65.4263 399.588 65.2535C399.129 65.0041 399.988 63.6926 397.079 64.4724C396.587 64.6017 391.745 65.4961 389.693 64.0574C389.154 63.6794 387.818 62.2644 386.494 62.2266C386.314 62.2258 386.907 62.9773 385.828 62.8573C382.009 62.4206 378.03 61.6637 374.087 61.1769C373.029 61.0472 374.478 61.975 372.902 61.7603C368.629 61.181 363.317 60.0625 359.18 59.1049C357.648 58.7494 358.814 58.4011 358.712 58.3219C357.078 57.038 355.8 58.141 355.187 58.1077C351.392 57.8847 348.68 56.7609 345.232 56.2925C344.278 56.1611 344.835 56.9005 344.637 56.9207C342.584 57.0972 344.244 56.2595 343.028 55.9091C339.66 54.9305 335.768 54.2584 332.286 53.6892C331 53.4797 332.306 54.4626 331.153 54.2662C324.31 53.1138 317.265 51.7121 310.694 50.055C309.46 49.7423 310.35 49.3423 310.114 49.1673C308.488 47.9486 305.629 48.6443 305.001 48.6426C302.146 48.6377 301.175 47.9484 298.727 47.574C286.77 45.7544 272.185 42.6066 261.028 40.2492C246.493 37.1824 235.277 34.4792 221.34 31.972C220.457 31.8126 221.207 32.7121 220.445 32.5843C210.576 30.8944 200.945 28.7906 191.06 27.1989C190.255 27.0682 191.29 27.9744 189.985 27.7865C187.25 27.3955 183.976 26.7631 181.269 26.0486C179.972 25.7059 181.843 25.4264 180.537 25.0939C177.544 24.3273 174.175 23.6797 171.05 23.2498C169.676 23.0609 171.61 24.1297 169.838 23.8298C168.256 23.5645 166.7 23.307 165.172 23.0547C154.798 21.3431 144.616 19.6621 134.302 17.2994C133.483 17.1125 132.943 15.5494 131.158 15.5726C130.968 15.9561 130.906 16.4307 130.787 16.8527C113.444 14.6262 96.2402 11.7706 79.2459 11.6806C78.5402 11.6829 79.7608 12.4486 78.4029 12.4598C73.8791 12.508 69.5424 12.8601 65.1885 13.3811C61.8944 13.774 58.5657 14.264 55.1164 14.7654C54.3223 14.8878 54.3896 13.4442 52.133 14.2601C51.732 14.3937 48.3337 15.5724 47.5415 16.1522C47.4361 16.2332 48.2482 16.6419 47.1599 17.0109C40.8338 19.1553 34.2786 21.7397 28.1052 24.4507C27.1141 24.8859 27.8285 23.7564 27.1193 24.0629C22.0375 26.2714 17.1226 29.8094 12.5563 32.306C9.49033 34.0166 9.85598 32.306 7.63912 32.5564C7.33247 32.5778 5.60961 33.9694 5.09535 33.5399C3.75199 32.4646 3.40494 30.3229 1.87917 29.2565C1.54779 28.999 -0.638534 31.5576 0.182175 29.5378C0.250958 29.3735 1.87138 27.5685 2.13722 26.9609C2.32529 26.5266 1.30565 26.4689 1.79842 25.7121C2.27793 24.9706 3.35555 24.8554 4.28064 23.7597C5.17913 22.6922 4.23783 22.387 6.45621 20.733ZM694.545 24.543C692.42 24.6288 692.973 26.9756 694.822 25.6846C694.911 25.6194 694.655 24.537 694.545 24.543ZM936.19 24.3671C933.688 23.0289 931.734 24.3824 933.493 25.3913C935.219 26.397 936.966 24.7753 936.19 24.3671ZM963.435 27.004C960.488 25.7488 959.559 29.0461 962.905 28.8227C963.103 28.8115 963.608 27.0774 963.435 27.004ZM14.6656 27.1694C14.6153 27.1609 13.2751 28.0023 13.25 28.0603C12.9618 29.1587 15.6593 27.4604 14.6656 27.1694ZM990.394 30.4259C989.532 29.8158 986.698 29.8753 987.784 30.6371C988.656 31.25 991.484 31.1879 990.394 30.4259ZM595.251 60.2115C595.211 60.1876 594.085 60.511 594.167 60.6959C594.44 61.2918 595.938 60.6217 595.251 60.2115ZM1036.13 36.717C1029.69 35.4148 1025.62 32.4816 1033.08 33.5382C1034.43 33.7514 1030.06 34.0977 1031.75 34.5406C1034.71 35.3554 1037.51 33.8292 1040.25 36.4317C1040.47 36.6685 1039.47 36.5809 1038.43 36.6091C1037.38 36.6223 1036.31 36.7681 1036.12 36.718C1036.13 36.7177 1036.13 36.7174 1036.13 36.717ZM692.458 22.2487C692.407 22.2334 690.884 22.7649 690.853 22.8102C690.294 23.8268 693.376 22.7517 692.458 22.2487ZM527.836 69.5851C527.739 69.5216 523.991 69.4865 523.868 69.5459C521.912 70.8022 529.513 70.8794 527.836 69.5851ZM800.435 8.85591C802.236 8.15854 804.369 8.15665 805.74 9.17726C803.982 9.04964 802.204 8.96953 800.435 8.85591Z" fill="#45321F"/>
</svg>
