<svg width="520" height="117" viewBox="0 0 520 117" fill="none" xmlns="http://www.w3.org/2000/svg">
<path d="M-21.4535 1.58821C-19.0261 3.74487 -16.1523 6.86722 -14.0109 9.34504C-13.3423 10.1181 -13.9984 10.0763 -13.5533 10.6196C-12.6785 11.6845 -11.5834 12.4381 -10.7428 13.5027C-10.4586 13.8635 -11.3318 13.9627 -11.0219 14.3312C-9.33131 16.3348 -7.41494 17.8906 -5.57557 19.7886C-3.18444 22.2555 -0.763599 24.6805 1.67549 27.0716C8.37534 33.6463 15.5741 39.6921 23.2268 45.5004C26.648 48.1023 30.6278 51.5724 34.5115 53.7797C34.9635 54.0361 35.0259 53.3731 35.135 53.3862C36.8315 53.5999 35.7604 54.3237 36.5276 55.0049C39.5744 57.7024 43.3791 60.0959 46.8364 61.862C48.3157 62.6149 47.4757 60.7672 48.5784 62.1714C48.6557 62.2677 47.9794 62.5988 48.3367 62.8836C49.1391 63.5251 50.9017 64.4054 51.5632 64.8355C52.8451 65.6733 53.0831 65.799 54.3413 66.5061C56.0716 67.4833 58.0052 68.8877 59.9459 69.7574C60.3605 69.9411 60.1294 69.0921 60.8249 69.3371C61.5273 69.587 63.1766 70.5119 63.6963 70.9503C64.2037 71.3835 63.7263 71.7043 63.7753 71.8599C64.1638 73.1614 66.7686 72.971 67.0358 73.0671C71.9249 74.8989 75.6418 77.5431 80.076 79.6035C82.1307 80.5563 84.3179 81.4505 86.4252 82.325C87.7222 82.8613 89.0512 83.3726 90.2954 83.8645C94.1063 85.3631 97.3501 86.7324 101.274 87.7624C101.684 87.8696 101.406 87.0104 101.907 87.1392C107.266 88.5107 112.625 89.7976 117.992 91.3962C118.528 91.5562 117.694 92.065 118.222 92.2638C121.466 93.4754 126.611 95.7338 129.112 93.2329C131.393 93.7429 134.141 94.3154 136.111 95.2196C137.386 95.8022 135.978 96.3093 137.654 96.263C138.032 96.2532 137.652 95.5535 138.212 95.5858C140.579 95.7239 143.073 96.311 145.43 96.3296C145.911 96.3321 145.866 95.7527 146.012 95.6713C147.234 95.0171 148.907 96.6393 149.293 96.7949C152.265 97.9696 154.577 97.9985 157.44 98.4097C158.109 98.5059 157.421 97.6437 158.069 97.7091C161.408 98.0557 164.865 98.5818 168.083 99.3434C168.803 99.5151 168.048 100.07 168.388 100.185C168.462 100.209 168.533 100.23 168.603 100.247C169.931 100.57 170.43 99.5301 171.79 99.9475C172.09 100.038 171.852 100.568 171.901 100.635C172.667 101.69 173.591 100.431 173.819 100.426C176.72 100.34 178.407 101.93 181.209 101.985C181.543 101.989 180.857 101.223 181.793 101.278C188.023 101.639 194.603 102.244 200.775 103.132C201.735 103.269 201.019 103.759 201.076 103.828C202.013 104.894 202.724 103.568 203.041 103.533C205.541 103.291 207.808 104.543 209.574 103.006C218.906 103.955 228.311 103.751 237.567 105.321C238.723 105.516 239.863 105.726 240.99 105.956C241.12 105.981 240.845 106.636 241.104 106.682C244.257 107.241 243.727 106.163 245.842 104.981C246.372 104.684 247.938 106.276 248.075 106.392C248.581 106.823 248.014 107.803 248.185 107.889C249.617 108.56 249.433 105.26 251.379 105.291C251.439 105.298 251.176 105.901 251.338 105.964C251.841 106.161 252.343 105.925 252.831 106.137C253.939 106.626 254.364 108.233 256.095 107.286C256.31 107.161 255.969 105.3 257.666 105.36C258.366 105.39 261.368 105.266 262.231 105.341C263.089 105.423 262.533 106.052 262.594 106.076C264.931 106.757 264.076 107.129 265.296 108.239C266.547 109.337 266.035 106.559 266.482 106.214C266.935 105.872 268.642 106.397 269.084 106.585C269.521 106.776 269.034 107.204 269.417 107.3C271.957 107.913 270.361 105.813 271.115 105.293C272.862 104.055 274.56 105.944 276.323 105.909C276.799 105.899 276.352 105.483 276.762 105.381C278.368 104.98 279.466 105.467 281.216 104.56C281.499 104.414 282.768 102.914 283.898 103.623C284.059 103.726 283.773 104.312 284.485 104.288C285.547 104.255 287.444 103.96 288.504 103.531C289.293 103.213 288.161 102.605 289.246 102.618C289.727 102.623 289.003 103.313 289.9 103.28C290.788 103.254 292.967 102.659 293.775 102.41C294.588 102.164 293.964 101.666 294.018 101.606C294.355 101.254 295.821 100.497 295.955 100.455C302.819 98.2989 309.453 96.8296 315.737 93.4948C316.228 93.234 315.602 92.773 315.674 92.7269C317.265 91.6571 316.69 93.9408 318.16 93.9116C317.384 92.7457 318.205 92.6335 319.341 91.9039C319.888 91.5505 319.334 91.2257 319.362 91.1503C319.855 89.996 320.92 90.6363 321.172 90.7507C322.097 91.1708 322.288 90.021 322.915 90.2934C323.542 90.561 323.009 91.7142 324.158 91.1081C324.249 90.5013 322.805 89.7908 323.573 89.1546C326.471 86.7691 332.976 84.313 335.614 82.9169C335.894 82.7701 336.154 82.6321 336.396 82.5019C338.461 81.3933 339.225 80.9026 340.675 80.2791C343.569 79.0505 342.122 78.7517 343.617 77.4382C345.15 76.1141 345.421 78.657 345.91 78.9716C346.393 79.2901 346.412 78.6869 346.844 78.7742C347.274 78.8627 346.789 79.5109 347.54 79.232C348.291 78.9507 349.823 77.136 349.83 76.5368C349.857 75.2578 348.431 74.6532 350.532 74.0536C350.653 74.0204 350.578 74.755 351.025 74.6001C354.577 73.3458 358.089 71.7088 361.673 70.5899C362.167 70.4369 362.026 71.2555 362.316 71.1742C365.318 70.3502 363.85 69.7184 364.917 67.8592C365.231 69.6012 366.504 70.1999 368.668 69.3405C369.977 68.8256 369.474 68.2158 370.132 67.3885C370.329 67.1392 371.449 67.2635 371.492 66.8687C371.642 65.5747 370.293 64.6888 372.769 64.3198C372.878 64.3058 372.777 65.0188 373.138 64.9271C375.467 64.3457 375.331 63.1065 377.738 62.1253C379.626 61.3549 383.294 60.9488 385.531 60.3974C386.059 62.2635 387.982 61.2172 388.459 59.6845C389.9 59.3168 391.431 58.7993 392.874 58.5863C393.372 58.512 393.208 59.1417 393.285 59.1831C394.459 59.8432 394.731 58.4184 395.03 58.2829C398.263 56.8803 401.256 57.1128 404.238 55.3477C404.343 55.2849 404.188 53.9324 405.295 54.6647C405.368 54.7161 404.454 55.5832 405.985 55.2401C407.517 54.8966 410.529 54.8809 412.502 53.7448C412.973 53.472 413.98 52.093 415.236 52.6621C415.403 52.7401 415.344 53.1532 415.597 53.3119C415.684 53.3659 415.763 53.3979 415.835 53.4131C415.854 53.4076 415.914 53.3985 415.934 53.396C416.491 53.6091 416.757 52.6034 417.554 53.5658C418.439 54.6449 420.112 55.3591 422.224 54.3823C422.29 54.3535 422.712 53.2348 423.405 53.1962C424.498 53.1362 426.076 53.2414 427.213 53.1523C427.762 53.1088 427.362 52.4655 427.457 52.4463C431.124 51.8086 433.783 52.2404 437.741 52.2824C438.466 52.2913 440.494 51.2697 441.942 51.9245C443.509 52.6435 442.092 56.0005 445.575 55.0611C446.981 54.6867 448.631 50.4384 451.267 52.5097C456.23 51.7984 460.839 52.7858 465.818 51.9312C466.04 51.8933 466.727 50.7158 467.256 50.7233C468.039 50.7366 468.486 51.275 469.04 51.3031C471.381 51.4347 473.529 50.9473 475.784 51.0054C476.643 51.0266 476.345 51.5914 477.372 51.6179C478.389 51.6444 479.07 50.9002 480.459 51.2566C481.5 51.5286 482.553 53.0448 483.934 53.2252C483.99 51.7301 484.943 51.7625 486.642 51.3772C486.968 51.3025 486.622 50.78 486.776 50.7178C487.404 50.4532 487.982 50.8886 488.582 50.6013C488.728 50.5323 488.739 50.0216 488.858 49.9364C489.876 49.1922 491.523 50.3583 491.808 50.5619C492.897 51.3341 493.408 50.6766 494.245 50.9874C495.078 51.2983 493.82 51.6543 494.796 51.8498C495.958 52.082 497.296 52.1688 498.63 52.2145L498.608 52.2138C499.608 52.2791 500.559 52.3242 501.444 52.3914C502.251 52.4506 501.745 51.7342 501.862 51.7269C503.574 51.6663 505.212 52.5375 506.284 51.2819C507.093 54.9002 507.337 51.028 509.687 52.0527C509.877 52.1376 509.864 53.8114 509.124 53.9541C508.382 54.097 507.359 53.4496 506.32 53.7256C506.077 53.788 504.579 55.2101 504.395 55.2908C502.908 55.904 502.885 53.421 502.817 53.278C502.047 51.7444 500.264 53.3141 499.815 53.4066C499.376 53.4965 498.961 53.5482 498.54 53.576L498.604 53.5782C497.096 53.7273 495.763 53.5549 494.42 53.8329C493.307 54.0621 493.179 55.6861 492.312 55.6257C489.422 55.4284 488.427 53.1533 485.692 55.1048C485.105 55.5218 485.676 57.299 483.594 55.8962C483.468 55.8076 481.905 54.5271 481.011 55.3362C480.899 55.4382 480.903 55.9559 480.755 55.9995C479.763 56.2817 479.09 55.8707 478.01 56.0722C476.932 56.2738 475.619 56.5757 474.388 56.41C473.638 56.3108 472.671 55.3555 472.312 55.1231C471.303 54.4531 470.221 55.5819 469.589 54.7666C468.948 53.9475 470.164 52.673 468.502 52.1614C468.46 53.5072 468.338 54.8896 468.26 56.2436C464.641 56.2503 461.07 55.8908 457.439 56.051C456.987 56.0724 457.47 56.7822 456.986 56.8238C454.954 56.9967 453.168 56.5379 451.058 56.8187C449.438 57.0386 447.681 57.8734 445.978 58.1394C444.876 56.6453 442.369 57.2817 440.519 57.2355C439.874 57.2196 439.903 56.8066 439.433 56.6967C437.671 56.293 438.558 57.6084 438.097 57.8475C436.119 58.8715 435.782 55.8061 433.376 56.0287C433.253 56.0388 431.801 57.7749 431.596 57.8912C430.292 58.6446 431.334 57.3357 430.485 57.2706C428.911 57.1546 427.807 56.839 426.036 57.454C425.503 57.6367 424.341 58.7522 423.238 58.0488C423.094 57.9565 423.125 57.4099 423.013 57.3871C421.011 57.0216 421.092 58.7277 420.032 59.4007C418.961 60.0746 417.128 59.0682 416.748 58.7656C415.754 57.982 417.409 58.324 417.455 58.2339C417.849 57.3739 417.122 57.3906 416.333 57.4365L416.813 57.3537C416.611 57.3956 416.405 57.4399 416.208 57.4709C415.664 55.8841 414.358 56.3125 415.199 57.6362C415.293 57.7804 415.996 57.4448 416.208 57.4709C415.754 59.2732 414.383 59.8305 412.38 58.7535C411.449 58.247 411.97 57.2516 409.749 58.1278C408.74 58.5255 409.424 59.5392 408.592 60.0741C406.674 61.2995 403.704 60.9567 401.602 61.6872C400.838 61.9527 401.758 62.3609 401.243 62.5631C399.894 63.0974 398.509 62.9803 397.177 63.5957C397.054 63.6528 397.542 64.2028 397.104 64.3316C393.813 65.3155 390.83 65.7272 387.41 66.7577C385.755 67.2536 382.939 68.5324 381.236 69.0302C378.282 69.8836 374.39 70.2733 372.016 71.4476C370.473 72.2082 371.066 72.6876 370.552 73.3747C369.572 74.6985 366.678 74.2184 366.268 74.1338C366.255 74.1293 367.553 73.4142 366.697 73.4072C366 72.9355 366.281 74.1248 366.268 74.1338C365.998 74.0729 363.232 75.1121 362.754 75.4712C362.492 75.6638 362.91 76.1613 362.769 76.2509C359.416 78.3713 355.949 80.2294 352.256 81.8011C352.188 81.8218 351.962 81.1522 351.806 81.2089C349.603 81.9968 348.681 83.4564 347.236 84.8137C345.796 86.17 344.395 86.7539 342.808 86.2665C341.901 86.9031 340.545 87.3616 339.377 87.7113C338.983 87.8293 338.617 87.9294 338.308 88.012C337.084 88.339 337.608 89.6046 337.527 89.6815C335.007 92.0937 332.923 92.3653 329.76 93.9306C328.259 94.6731 325.393 96.3928 323.825 97.3412C322.583 98.0984 321.664 98.1946 320.548 98.959C320.397 99.0619 320.824 99.5286 320.785 99.5735C319.746 100.874 319.758 99.2259 319.367 99.1196C317.947 98.7261 317.12 98.5524 315.574 99.7461C315.221 100.019 314.907 102.491 314.205 102.928C313.295 103.491 313.363 102.632 312.418 103.23C312.337 103.281 312.538 103.709 311.897 103.951C308.928 105.082 305.581 106.053 302.46 107.149C302.031 107.297 302.822 107.822 302.202 108.048C299.307 109.105 296.041 110.034 293.034 110.44C292.3 110.535 292.618 109.914 292.426 109.803C291.257 109.13 290.227 110.778 290.001 110.856C284.781 112.725 280.428 112.228 275.005 113.497C274.719 113.57 272.535 115.293 271.381 114.138C271.3 114.062 270.163 112.881 269.33 113.833C269.278 113.892 269.967 114.499 268.859 114.524C267.761 114.547 265.949 115.119 264.406 114.474C263.914 114.271 262.7 113.052 261.316 114.127C261.237 114.204 259.074 116.587 258.224 115.005C258.086 114.744 258.193 113.059 256.509 113.948C256.184 114.119 256.783 114.489 255.922 114.733C254.585 115.108 252.856 114.653 251.213 115.381C250.929 115.511 249.676 116.635 248.742 115.74C248.595 115.6 248.896 115.045 248.39 114.968C245.959 114.599 243.439 114.865 240.988 114.329C240.139 114.14 240.633 113.258 239.755 112.958C239.113 112.738 237.981 112.487 237.027 112.497C236.688 112.502 236.375 112.544 236.121 112.637C235.179 112.986 236.066 114.506 234.7 114.524C228.743 114.603 222.909 113.423 216.943 112.998C216.06 112.935 216.766 113.491 215.46 113.436C210.651 113.236 202.263 113.329 198.094 111.986C194.761 110.913 199.055 110.482 196.493 109.976C195.259 109.733 193.807 111.336 193.501 111.37C190.518 111.725 188.514 110.838 185.838 110.864C185.284 110.869 185.771 111.593 185.3 111.589C183.689 111.583 182.032 111.138 180.494 111.056C179.805 111.02 179.884 111.552 179.255 111.453C177.746 111.221 176.425 110.869 175.004 110.227C174.875 110.168 175.848 109.618 174.733 109.475C172.929 109.245 170.744 108.507 168.606 108.738C168.156 108.788 167.936 109.395 167.409 109.393C167.195 109.392 166.932 109.288 166.582 109C166.331 108.793 166.864 107.417 165.187 108.446C164.912 108.618 162.129 109.936 161.027 108.701C160.74 108.376 160.045 107.099 159.292 107.184C159.189 107.199 159.5 107.889 158.887 107.869C156.738 107.79 154.515 107.416 152.289 107.307C151.697 107.279 152.475 108.058 151.596 107.996C149.177 107.826 146.198 107.227 143.889 106.674C143.032 106.469 143.713 106.014 143.659 105.945C142.787 104.832 141.999 106.041 141.653 106.067C139.488 106.204 137.997 105.349 136.042 105.206C135.506 105.165 135.783 105.843 135.669 105.882C134.489 106.247 135.486 105.266 134.806 105.032C132.908 104.373 130.733 104.066 128.754 103.81C128.021 103.716 128.716 104.571 128.061 104.478C124.192 103.943 120.193 103.142 116.511 102.001C115.82 101.785 116.374 101.325 116.252 101.171C115.431 100.096 113.677 100.978 113.318 101.021C111.652 101.213 111.144 100.598 109.75 100.385C102.912 99.3565 94.6394 96.858 88.3258 94.3275C86.1788 93.4768 84.1727 92.5804 82.2477 91.619C77.2376 89.0911 72.6991 86.6904 67.3614 84.1912C66.9002 83.974 67.0345 84.8686 66.6316 84.6892C61.4597 82.3477 56.6105 79.5188 51.5192 76.9888C51.1015 76.7794 51.3554 77.7217 50.672 77.4051C49.2557 76.7535 47.5797 75.7782 46.3228 74.8086C45.7179 74.3418 46.8987 74.3146 46.2842 73.8555C44.8484 72.7809 43.227 71.7878 41.5861 70.9544C40.8865 70.6002 41.5359 71.8198 40.6592 71.3129C34.6853 67.8694 28.849 64.3362 23.587 59.6328C23.2262 59.3098 23.7102 57.8665 22.7167 57.5241C22.423 57.8158 22.1548 58.2122 21.8805 58.5513C13.4557 53.0268 5.81647 46.5425 -1.78688 39.8702C-2.10789 39.5883 -2.05712 40.6598 -2.68229 40.1154C-4.08771 38.8899 -5.47234 37.701 -6.83648 36.4542C-8.94343 34.5278 -10.979 32.529 -12.8206 30.1866C-13.1223 29.8053 -11.9972 28.9851 -13.1817 28.171C-13.3913 28.0292 -15.0614 26.7276 -15.6624 26.572C-15.7465 26.5548 -15.9028 27.2812 -16.4079 26.8357C-19.3811 24.1953 -22.2903 21.2428 -24.8779 18.2007C-25.2854 17.7175 -24.3307 17.6958 -24.619 17.3453C-26.6945 14.8362 -29.5657 12.7316 -31.3078 10.085C-32.4743 8.30557 -31.0931 8.0349 -31.0299 6.44332C-31.0141 6.22633 -31.8803 5.29199 -31.4466 4.7727C-30.3492 3.47485 -28.5788 2.64335 -27.4634 1.20356C-27.3483 1.04351 -27.6467 0.743989 -27.8358 0.461809C-28.0336 0.172086 -28.0919 -0.0722237 -27.3446 0.0197399C-27.2342 0.0417261 -26.1468 0.722124 -25.723 0.70178C-25.4173 0.701188 -25.1849 -0.041806 -24.6933 0.0608118C-24.1945 0.171066 -24.2874 0.898195 -23.5607 1.16708C-22.8399 1.42285 -22.4957 0.665786 -21.4535 1.58821ZM332.797 89.464C331.486 89.4427 332.494 91.6194 333.297 90.521C333.334 90.4653 332.863 89.4635 332.797 89.464ZM461.045 54.094C459.559 53.0731 458.582 54.6517 459.642 55.4398C460.703 56.2277 461.496 54.4036 461.045 54.094ZM476.263 53.1031C474.539 52.2818 474.297 55.6769 476.125 54.9789C476.232 54.9395 476.363 53.1508 476.263 53.1031ZM-27.2282 9.8287C-27.2095 9.80284 -27.8504 9.11743 -27.8799 9.13202C-28.7645 9.32168 -27.5072 10.6675 -27.2282 9.8287ZM491.394 52.3035C490.86 51.8382 489.314 52.3537 489.973 52.9307C490.503 53.3944 492.056 52.8817 491.394 52.3035ZM276.53 107.06C276.507 107.027 275.85 107.084 275.889 107.282C276.02 107.92 276.908 107.613 276.53 107.06ZM516.677 54.8761C513.215 53.7098 511.311 50.5595 515.478 51.8169C516.215 52.0606 513.644 52.2839 514.54 52.7638C516.121 53.6226 517.787 52.3123 519.195 53.7758C519.445 54.0397 516.865 54.9396 516.67 54.8779C516.672 54.8773 516.675 54.8767 516.677 54.8761ZM330.834 87.2657C330.798 87.2493 329.993 87.6589 329.989 87.6964C329.925 88.5987 331.552 87.7723 330.834 87.2657ZM238.55 106.451C238.528 106.416 238.021 106.348 237.494 106.292C236.939 106.232 236.369 106.189 236.331 106.218C235.713 106.825 236.572 107.234 237.418 107.293C238.198 107.347 238.95 107.102 238.55 106.451ZM385.581 60.4363C386.304 59.4162 387.423 58.9879 388.454 59.6848C387.492 59.9153 386.54 60.1925 385.581 60.4363Z" fill="#45321F"/>
</svg>
