<svg xmlns="http://www.w3.org/2000/svg" viewBox="0 0 256 256" width="256" height="256">
  <defs>
    <radialGradient id="face" cx="42%" cy="38%" r="70%">
      <stop offset="0%" stop-color="#FBF3DE"/>
      <stop offset="70%" stop-color="#F1E3C2"/>
      <stop offset="100%" stop-color="#E4D0A4"/>
    </radialGradient>
  </defs>
  <circle cx="128" cy="128" r="118" fill="#6E3D14"/>
  <circle cx="128" cy="128" r="112" fill="#9A571E"/>
  <circle cx="128" cy="128" r="100" fill="url(#face)" stroke="#6E3D14" stroke-width="2"/>
  <circle cx="128" cy="128" r="100" fill="none" stroke="#E4D0A4" stroke-width="6" stroke-dasharray="2 7" opacity="0.7"/>
  <g stroke-linecap="round" stroke-linejoin="round">
    <!-- Row 1: key line | colon | value line -->
    <line x1="66" y1="88" x2="104" y2="88" stroke="#6B4423" stroke-width="6"/>
    <circle cx="116" cy="88" r="4" fill="#6B4423"/>
    <line x1="128" y1="88" x2="190" y2="88" stroke="#D9A441" stroke-width="6"/>
    <!-- Row 2 -->
    <line x1="66" y1="110" x2="98" y2="110" stroke="#6B4423" stroke-width="6"/>
    <circle cx="116" cy="110" r="4" fill="#6B4423"/>
    <line x1="128" y1="110" x2="182" y2="110" stroke="#D9A441" stroke-width="6"/>
    <!-- Row 3 -->
    <line x1="66" y1="132" x2="108" y2="132" stroke="#6B4423" stroke-width="6"/>
    <circle cx="116" cy="132" r="4" fill="#6B4423"/>
    <line x1="128" y1="132" x2="186" y2="132" stroke="#D9A441" stroke-width="6"/>
    <!-- Row 4 -->
    <line x1="66" y1="154" x2="100" y2="154" stroke="#6B4423" stroke-width="6"/>
    <circle cx="116" cy="154" r="4" fill="#6B4423"/>
    <line x1="128" y1="154" x2="178" y2="154" stroke="#D9A441" stroke-width="6"/>
    <!-- Row 5 -->
    <line x1="66" y1="176" x2="106" y2="176" stroke="#6B4423" stroke-width="6"/>
    <circle cx="116" cy="176" r="4" fill="#6B4423"/>
    <line x1="128" y1="176" x2="190" y2="176" stroke="#D9A441" stroke-width="6"/>
    <!-- Vertical divider -->
    <line x1="116" y1="76" x2="116" y2="188" stroke="#8B5E34" stroke-width="3" opacity="0.6"/>
  </g>
</svg>
