<svg xmlns="http://www.w3.org/2000/svg" viewBox="0 0 256 256" width="256" height="256">
  <defs>
    <radialGradient id="face" cx="42%" cy="38%" r="70%">
      <stop offset="0%" stop-color="#FBF3DE"/>
      <stop offset="70%" stop-color="#F1E3C2"/>
      <stop offset="100%" stop-color="#E4D0A4"/>
    </radialGradient>
  </defs>
  <circle cx="128" cy="128" r="118" fill="#6E3D14"/>
  <circle cx="128" cy="128" r="112" fill="#9A571E"/>
  <circle cx="128" cy="128" r="100" fill="url(#face)" stroke="#6E3D14" stroke-width="2"/>
  <circle cx="128" cy="128" r="100" fill="none" stroke="#E4D0A4" stroke-width="6" stroke-dasharray="2 7" opacity="0.7"/>
  <g stroke-linecap="round" stroke-linejoin="round">
    <!-- Divider lines -->
    <line x1="128" y1="68" x2="128" y2="188" stroke="#8B5E34" stroke-width="2" opacity="0.4"/>
    <line x1="68" y1="128" x2="188" y2="128" stroke="#8B5E34" stroke-width="2" opacity="0.4"/>
    <!-- Plus symbol (top-left quadrant) -->
    <line x1="90" y1="95" x2="90" y2="119" stroke="#6B4423" stroke-width="7"/>
    <line x1="78" y1="107" x2="102" y2="107" stroke="#6B4423" stroke-width="7"/>
    <!-- Minus symbol (top-right quadrant) -->
    <line x1="154" y1="107" x2="178" y2="107" stroke="#6B4423" stroke-width="7"/>
    <!-- Multiply symbol (bottom-left quadrant) -->
    <line x1="79" y1="149" x2="101" y2="171" stroke="#6B4423" stroke-width="7"/>
    <line x1="101" y1="149" x2="79" y2="171" stroke="#6B4423" stroke-width="7"/>
    <!-- Divide symbol (bottom-right quadrant) -->
    <line x1="154" y1="160" x2="178" y2="160" stroke="#6B4423" stroke-width="7"/>
    <circle cx="166" cy="148" r="5" fill="#6B4423"/>
    <circle cx="166" cy="172" r="5" fill="#6B4423"/>
    <!-- Equals sign in center -->
    <line x1="112" y1="121" x2="144" y2="121" stroke="#D9A441" stroke-width="6"/>
    <line x1="112" y1="135" x2="144" y2="135" stroke="#D9A441" stroke-width="6"/>
  </g>
</svg>
