<svg xmlns="http://www.w3.org/2000/svg" viewBox="0 0 256 256" width="256" height="256">
  <defs>
    <radialGradient id="face" cx="42%" cy="38%" r="70%">
      <stop offset="0%" stop-color="#FBF3DE"/>
      <stop offset="70%" stop-color="#F1E3C2"/>
      <stop offset="100%" stop-color="#E4D0A4"/>
    </radialGradient>
  </defs>
  <circle cx="128" cy="128" r="118" fill="#6E3D14"/>
  <circle cx="128" cy="128" r="112" fill="#9A571E"/>
  <circle cx="128" cy="128" r="100" fill="url(#face)" stroke="#6E3D14" stroke-width="2"/>
  <circle cx="128" cy="128" r="100" fill="none" stroke="#E4D0A4" stroke-width="6" stroke-dasharray="2 7" opacity="0.7"/>
  <g stroke-linecap="round" stroke-linejoin="round">
    <!-- Diamond decision node -->
    <polygon points="128,72 168,112 128,152 88,112" fill="#FBF3DE" stroke="#6B4423" stroke-width="5"/>
    <!-- Arrow going left-down -->
    <line x1="88" y1="112" x2="66" y2="170" stroke="#6B4423" stroke-width="5"/>
    <polygon points="60,182 62,164 76,172" fill="#6B4423"/>
    <!-- Arrow going right-down -->
    <line x1="168" y1="112" x2="190" y2="170" stroke="#6B4423" stroke-width="5"/>
    <polygon points="196,182 194,164 180,172" fill="#6B4423"/>
    <!-- Small dot at bottom of left arrow -->
    <circle cx="63" cy="183" r="6" fill="#6B7A99"/>
    <!-- Small dot at bottom of right arrow -->
    <circle cx="193" cy="183" r="6" fill="#D9A441"/>
    <!-- Entry arrow from top -->
    <line x1="128" y1="55" x2="128" y2="68" stroke="#6B4423" stroke-width="5"/>
    <polygon points="128,72 122,58 134,58" fill="#6B4423"/>
  </g>
</svg>
