<svg xmlns="http://www.w3.org/2000/svg" viewBox="0 0 256 256" width="256" height="256">
  <defs>
    <radialGradient id="face" cx="42%" cy="38%" r="70%">
      <stop offset="0%" stop-color="#FBF3DE"/>
      <stop offset="70%" stop-color="#F1E3C2"/>
      <stop offset="100%" stop-color="#E4D0A4"/>
    </radialGradient>
  </defs>
  <circle cx="128" cy="128" r="118" fill="#6E3D14"/>
  <circle cx="128" cy="128" r="112" fill="#9A571E"/>
  <circle cx="128" cy="128" r="100" fill="url(#face)" stroke="#6E3D14" stroke-width="2"/>
  <circle cx="128" cy="128" r="100" fill="none" stroke="#E4D0A4" stroke-width="6" stroke-dasharray="2 7" opacity="0.7"/>
  <g stroke-linecap="round" stroke-linejoin="round">
    <!-- Three circles -->
    <circle cx="72" cy="128" r="26" fill="#FBF3DE" stroke="#6B4423" stroke-width="5"/>
    <circle cx="128" cy="128" r="26" fill="#FBF3DE" stroke="#6B4423" stroke-width="5"/>
    <circle cx="184" cy="128" r="26" fill="#FBF3DE" stroke="#6B4423" stroke-width="5"/>
    <!-- Horizontal bar inside each circle (suggesting a number/digit) -->
    <line x1="60" y1="122" x2="84" y2="122" stroke="#6B4423" stroke-width="5"/>
    <line x1="60" y1="132" x2="84" y2="132" stroke="#6B4423" stroke-width="5"/>
    <line x1="116" y1="122" x2="140" y2="122" stroke="#6B4423" stroke-width="5"/>
    <line x1="116" y1="132" x2="140" y2="132" stroke="#6B4423" stroke-width="5"/>
    <line x1="172" y1="122" x2="196" y2="122" stroke="#6B4423" stroke-width="5"/>
    <line x1="172" y1="132" x2="196" y2="132" stroke="#6B4423" stroke-width="5"/>
    <!-- Plus signs between circles -->
    <line x1="103" y1="128" x2="99" y2="128" stroke="#D9A441" stroke-width="5"/>
    <line x1="101" y1="126" x2="101" y2="130" stroke="#D9A441" stroke-width="5"/>
    <line x1="159" y1="128" x2="155" y2="128" stroke="#D9A441" stroke-width="5"/>
    <line x1="157" y1="126" x2="157" y2="130" stroke="#D9A441" stroke-width="5"/>
  </g>
</svg>
