<svg xmlns="http://www.w3.org/2000/svg" viewBox="0 0 256 256" width="256" height="256">
  <defs>
    <radialGradient id="face" cx="42%" cy="38%" r="70%">
      <stop offset="0%" stop-color="#FBF3DE"/>
      <stop offset="70%" stop-color="#F1E3C2"/>
      <stop offset="100%" stop-color="#E4D0A4"/>
    </radialGradient>
    
  </defs>
  <circle cx="128" cy="128" r="118" fill="#6E3D14"/>
  <circle cx="128" cy="128" r="112" fill="#9A571E"/>
  <circle cx="128" cy="128" r="100" fill="url(#face)" stroke="#6E3D14" stroke-width="2"/>
  <circle cx="128" cy="128" r="100" fill="none" stroke="#E4D0A4" stroke-width="6" stroke-dasharray="2 7" opacity="0.7"/>
  <g stroke-linecap="round" stroke-linejoin="round">

    <rect x="74" y="78" width="92" height="78" rx="8" fill="#FBF3DE" stroke="#6B4423" stroke-width="6"/>
    <path d="M74 92 q-14 0 -14 14 q0 14 14 14" fill="none" stroke="#6B4423" stroke-width="6"/>
    <path d="M166 142 q14 0 14 14 q0 14 -14 14" fill="none" stroke="#6B4423" stroke-width="6"/>
    <line x1="90" y1="100" x2="150" y2="100" stroke="#8B5E34" stroke-width="5"/>
    <line x1="90" y1="116" x2="150" y2="116" stroke="#8B5E34" stroke-width="5"/>
    <line x1="90" y1="132" x2="130" y2="132" stroke="#8B5E34" stroke-width="5"/>
    <path d="M150 170 L196 108 q8 -10 16 -4 q8 6 -2 14 L162 184 Z" fill="#6B7A99" stroke="#6B4423" stroke-width="5"/>
    <path d="M150 170 l-8 22 l22 -8 Z" fill="#E59BB5" stroke="#6B4423" stroke-width="5"/>

  </g>
</svg>